<svg xmlns="http://www.w3.org/2000/svg" viewBox="0 0 482 482"><defs><style>.cls-1{fill:#fdfefe;}</style></defs><title>Recurso 5</title><g id="Capa_2" data-name="Capa 2"><g id="Capa_1-2" data-name="Capa 1"><path class="cls-1" d="M263.87,162.34c-33.21-8.88-68.81,3.23-86.29,29.34-20.72,23.74-23.85,61-7.53,89.55,17,29.68,53.6,46.91,85.28,40.1,9.4-2,22.07-2.76,25.18-11.38,2.74-7.61-9.81-12.41-14.82-19.1-.6-.8-1.5-1.38-2.13-2.17-7.61-9.6-15.62-13.58-29.53-11.62-32.41,4.55-59.57-23.93-55.18-54.95.63-4.4.7-9.63,6-11.28,4.72-1.46,7,2.91,10.18,5.3,7.86,6,12,16.57,23,18.64,6.34-.3,14.51,2.39,17.2-5.76s3.24-17-5.08-23.58c-4.34-3.45-8-7.78-11.89-11.8-3.1-3.21-7.73-6.12-5.48-11.47,2.08-5,7.16-4.87,11.75-5.23,31-2.43,54.74,20.08,55.06,51.37.07,7.75-4.52,16.13,2.06,23.41,9.14,10.11,18.2,20.29,28,31.22,12.42-17.18,13.13-33.3,12.34-49.63C320.51,201.61,295,170.66,263.87,162.34Z"/><path class="cls-1" d="M241,0C107.9,0,0,107.9,0,241S107.9,482,241,482,482,374.1,482,241,374.1,0,241,0ZM369.59,265.61c-22.92,2.48-36.31,27.09-23.16,44.92,10.5,14.25,6.74,22.13-4.48,31.28-3.1,2.53-5.5,5.92-8.23,8.92-6.79,4.7-12.35,3.17-19.23-1.34-22.7-14.88-45.71-5.41-50,21.14-1.78,11.05-7.35,12.94-16.19,13.51-23.9,1.56-25,.95-32.75-21.14-7.12-20.19-30.23-28.94-46.66-15.36-14.13,11.69-20.85,2.41-28.77-5.94-7.51-7.9-18.64-13.72-6.45-28.44,14.93-18,4-43.93-19.16-47.67-12.5-2-16.46-7.81-15.7-19.22A128.66,128.66,0,0,0,99,231.06c-.47-9.24,3.12-13.28,12.88-14.68,26.62-3.81,37.38-27.74,22.06-49-5.37-7.45-6-13.4-1.12-20.55,3.71-3.45,7.71-6.65,11.07-10.42,8-9,15.28-10.27,26.19-2.82,20.36,13.89,44,3,47.65-21.69,1.58-10.68,6.9-14.66,16-13.75,11.48,1.13,27.17-6.62,32,11.55,8.6,32.11,24,38.67,52.54,21.08,5.82-3.59,10.44-3.16,15,1.19,5.17,4.88,10,10.12,15.2,15,6.53,6.1,7.51,11.32,1.72,19.54-16.16,23-7.13,44.11,21,50.55,8.51,2,12.09,6.44,11.89,14.81-.15,6.09-.22,12.2,0,18.29C383.61,259.75,380.47,264.43,369.59,265.61Z"/></g></g></svg>