<svg xmlns="http://www.w3.org/2000/svg" viewBox="0 0 476.6 476.6"><defs><style>.cls-1{fill:#fff;}</style></defs><title>Recurso 3</title><g id="Capa_2" data-name="Capa 2"><g id="Capa_1-2" data-name="Capa 1"><path class="cls-1" d="M238.3,0C106.69,0,0,106.69,0,238.3S106.69,476.6,238.3,476.6,476.6,369.91,476.6,238.3,369.91,0,238.3,0Zm22.91,408.69a23.08,23.08,0,1,1,23.31-22.8A23.07,23.07,0,0,1,261.21,408.69ZM366.3,390.8c-7.13,6-16,6.44-24.77,6.8-7,.29-14,.15-20.9,1.1-10.51,1.45-14.17-3.68-11.62-15.95a66.19,66.19,0,0,0,.28-25.12c-1.21-7-3.65-13.79-5.23-20.74-2.05-9-.55-17.76,2.79-26.55-1.21-.9-2.65-1.8-3.89-2.91-3.37-3-6.64-4.92-10.84-1.11-1.91,1.74-3.71.73-5.62-1-10.48-9.51-21.17-18.81-31.73-28.24-2.14-1.91-3.9-1-4.63.93-3.62,9.77-13.6,12.21-20.57,18.08-2.36,2-5.28,2.27-7.5-1-1.31-1.92-3.22-2.06-5-.47-2.62,2.32-5.24,4.66-7.77,7.08-4.64,4.42-8.71,9.7-14,13.15-5.6,3.67-11.69,7.05-19.47,3.43a23.52,23.52,0,0,1-9-7,32.27,32.27,0,0,0-5.44-4.67c-5.38-4.26-10.87-8.38-16.15-12.76-2.4-2-6.69-2.69-9.77-1.9-2.25.59-5.2.76-7.12-.24-2.88-1.51-5.52-1.39-8.38-.94-1.07.17-2.2.88-3.16.68-2.6-.57-5.63-.87-7.55-2.42-2.33-1.88-.77-4.79.52-7,1.82-3.09,3.91-6,6-9,.3-.42,1.24-.41,1.89-.55a69.26,69.26,0,0,0,24.11-9.66,22.62,22.62,0,0,0,2.43-2.21,9.14,9.14,0,0,0,1.65.62c7.89,1.39,7.89,1.39,8.26,9.52.32,7.14.34,7,7.46,8.11a63.67,63.67,0,0,1,12.64,3c3,1.16,5.59,3.59,8.55,5.59-.29.19,0,.11.09-.07q9.89-16.47,19.74-33c1.91-3.22,3.57-6.6,5.6-9.74,1.79-2.79,4.07-5.26,5.9-8,2.27-3.41,4.4-6.93,6.39-10.51,2.22-4,4.74-7.53,9-9.6,1.06-.51,1.74-1.83,2.88-3.09-5.86-1.13-5.9-1.15-3.92-6a66.57,66.57,0,0,0,5.44-24.66c0-2.42-.34-4.86-.53-7.29l-1.07-.19c-1,1.43-2.15,2.82-3.09,4.3-1.54,2.44-3.21,4.57-6.51,4.45a2.3,2.3,0,0,0-1.55.76c-3.22,3.86-6.35,7.79-9.57,11.64-2.62,3.13-5.65,6-7.89,9.33-2.12,3.18-5.19,4.93-8.54,6.51l5.25,4.16c-.16.35-.33.69-.49,1-4.48.4-9.06.18-12.71-2.76-2.32-1.87-5.33-3.64-4.68-7.92.52-3.46,4-8.84,7.52-10a6,6,0,0,0,2.54-2.21c1.74-2.38,3.09-5.08,5-7.29,4.1-4.7,8.62-8.83,10.64-15.24,1.63-5.16,5.15-9.7,7.68-14.59,1.43-2.77,2.35-5.81,3.86-8.53,2-3.53,3.89-7.23,6.58-10.19,3.47-3.83,7.67-7,11.59-10.44a15,15,0,0,1,2.67-1.88c4.56-2.46,9.76-3.35,13.33-8.17,1.53-2.06,5.52-2.66,5.4-6.45-.06-1.73-.25-4-1.31-5.06-3-3.14-2.61-6.84-2.63-10.56a51.4,51.4,0,0,1,.07-5.27,37.23,37.23,0,0,1,1-5.22c.17-.68,1-1.32.92-1.93-.65-6.95,5.2-10,8.66-14.41a3.9,3.9,0,0,1,2.8-1.39c6.67.35,13.42.62,19.22,4.55s8.38,9.75,9.79,16.26c.16.73-.71,1.69-1.08,2.55-1.24,2.82-2.61,5.6-3.69,8.49-2.61,7-5.09,14-7.52,20.72l6.15,4c-.09,0,.29,0,.34-.13,2-5.56,6.83-8,11.35-11.09,4.87-3.3,9.13-7.48,13.69-11.24,1.49-1.22,1.18-2.29.63-4a86.24,86.24,0,0,1-2.4-11.32c-.09-.53.58-1.23,1-1.81a43.26,43.26,0,0,0,3.26-4.69c2.58-5.11,4.7-5.74,10.4-2.61-1,2.62-.26,4.68,1.52,7.18,2.51,3.54,1.86,7.87-.41,11.69Q323,110,314.87,123.52c-1.43,2.39-3.12,4.64-4.33,7.13a15.9,15.9,0,0,1-8.64,8.3c-4.29,1.74-4.95,4.49-4.52,9a133.81,133.81,0,0,1,.72,20.88c-.73,11.68-2.38,23.31-3.41,35-.92,10.35-1.51,20.74-2.31,31.11-.25,3.31.72,5.87,3.6,7.74s3.18,4.2,1.09,6.78-.89,4,1.35,5.54c5.56,3.81,11.14,7.6,16.45,11.74a15.07,15.07,0,0,1,4,5.82c1.36,3.08,1.74,6.63,3.32,9.56a75.2,75.2,0,0,0,8.31,12.55c3.31,3.95,5.25,8.18,3.51,13-2.64,7.25-2.66,14.68-2.94,22.17-.37,9.79-1,19.58-1.41,29.37a37.69,37.69,0,0,0,.2,7.59c.66,4,2.29,4.88,6.38,5.12,2,.11,4.57.81,5.8,2.2,3.35,3.78,7.65,4.81,12.22,5.43,3.35.46,6.84.31,10,1.24,1.72.49,3.9,2.52,4.16,4.13A7.49,7.49,0,0,1,366.3,390.8Z"/></g></g></svg>