<svg xmlns="http://www.w3.org/2000/svg" viewBox="0 0 486 486"><defs><style>.cls-1{fill:#fff;}</style></defs><title>Recurso 4</title><g id="Capa_2" data-name="Capa 2"><g id="Capa_1-2" data-name="Capa 1"><path class="cls-1" d="M243,0C108.79,0,0,108.79,0,243S108.79,486,243,486,486,377.21,486,243,377.21,0,243,0ZM164.12,107.64c.32-1.69,3.87-2.77,6.19-4.29L167.63,98h.06l-1.56-.37,10.32-5.29c-.3-.79-.61-1.58-.91-2.38,7.14,3.69,12.28,1.47,14.74-3.87,11,1.66,21.45,1.73,29.54,8.09.68,1.37,1.45,4.59,2.42,4.65,7.29.49,5.11,6.76,6.83,10.55.4.88-.54,2.4-.11,3.24,9.3,17.74,3.74,35.35-.18,53-3.06,13.83-11.48,22.83-24.22,28.31-10,4.31-11.21,3.67-12.09-7.36-7.81,1.62-11-3.87-13.36-9.68-6.16-15.27-13-30.4-17.41-46.19C159.75,123.79,162.65,115.3,164.12,107.64ZM336.3,310.35c-5.1,11.82-11.07,23.28-16.74,34.86q-9.85,20.16-19.77,40.29c-.6,1.2-1.4,2.3-2.69,4.39l-22.48-15.58c-6.55,8.89-.45,14.77,5.77,21.64-7.16.61-13.24,1.23-19.34,1.63-33.84,2.23-67.66,4-101.49-.38-5.17-.67-7.51-2.69-9-7.61-4.1-13.89-2.63-26.12,9.52-35.38,6.42-4.89,8.11-11.14,7.63-18.8-1.41-22.75-2.08-45.55-4-68.25-.6-7.11-3.7-14.19-6.6-20.87-5.84-13.45-2.55-24.94,9.94-32.64,6.2-3.82,12.25-7.89,20.53-13.24-1.28,4.77-1.32,8.5-3.1,11-10.12,14-10,26.23,1.35,41.3,1.68-17.26,1.09-34.5,10.06-49.61l2.17-.2c1.12,9.94,2.24,19.87,3.32,29.48,10.77-17.1,21.56-34.2,32.76-52,7.49,10.66,18.82,9.51,29.46,10.56,8.24.81,16.68,1,24.62,3,3.69.95,8.71,5.31,9.23,8.71,4.05,26.5,18.18,48.77,29.09,72.38,3.58,7.73,7.31,15.45,10,23.49A18.06,18.06,0,0,1,336.3,310.35Z"/></g></g></svg>